<svg
      xmlns="http://www.w3.org/2000/svg"
      width="483"
      height="300"
      fill="none"
      viewBox="0 0 483 300"
    >
      <path
        fill="#2CB66F"
        d="M444.06 282c-11.7 0-22.92-5.556-30.024-14.844l-67.188-87.852-67.2 87.852C272.544 276.444 261.324 282 249.624 282h-26.64L324.18 149.664 223.5 18h26.64c11.7 0 22.932 5.544 30.024 14.832l66.672 87.192 66.684-87.192C420.612 23.544 431.844 18 443.544 18h26.64L369.492 149.664 470.7 282h-26.64z"
      ></path>
      <path
        fill="#fff"
        d="M458.04 24l-96.096 125.664L458.556 276H444.06a31.82 31.82 0 01-25.26-12.48l-71.952-94.092-71.952 94.092a31.784 31.784 0 01-25.26 12.48H235.14l96.612-126.336L235.632 24h14.496c9.9 0 19.248 4.62 25.26 12.48l71.448 93.42 71.448-93.42A31.784 31.784 0 01443.544 24h14.496zm24.288-12h-38.784c-13.548 0-26.556 6.432-34.788 17.196l-61.908 80.964-61.908-80.964C276.696 18.432 263.688 12 250.14 12h-38.784l14.748 19.284 90.528 118.38-91.032 119.04L210.84 288h38.784c13.548 0 26.556-6.432 34.788-17.196l62.424-81.636 62.424 81.636C417.492 281.568 430.5 288 444.06 288h38.784l-14.748-19.284-91.032-119.04 90.528-118.38L482.328 12z"
      ></path>
      <path
        fill="#2CB66F"
        d="M120 294C57.144 294 6 241.092 6 176.064v-52.14C6 58.908 57.144 6 120 6s114 52.896 114 117.924v50.064L42 174v2.064C42 221.244 76.992 258 120 258c23.724 0 46.716-11.952 61.5-31.956 7.536-10.212 18.612-16.056 30.384-16.056h17.628l-2.976 8.076C209.808 263.484 167.004 294 120 294zm78-156v-14.076C198 78.744 163.008 42 120 42s-78 36.744-78 81.924V138h156z"
      ></path>
      <path
        fill="#fff"
        d="M120 12c59.544 0 108 50.22 108 111.924V168H36v8.064C36 224.556 73.68 264 120 264c26.256 0 50.676-13.224 66.324-34.392 6.096-8.244 15.3-13.608 25.56-13.608h9.024l.012.012c-15.864 43.056-56.448 72-100.92 72-59.544 0-108-50.22-108-111.936v-52.14C12 62.22 60.456 12 120 12zM36 144h168v-20.076C204 75.444 166.32 36 120 36s-84 39.444-84 87.924V144zM120 0C53.832 0 0 55.596 0 123.924v52.14C0 244.404 53.832 300 120 300c49.5 0 94.572-32.088 112.176-79.848l5.94-16.128-17.184-.024h-9.036c-13.704 0-26.532 6.732-35.22 18.48C163.008 240.96 141.828 252 120 252c-38.448 0-69.96-31.956-71.904-72H240v-56.064C240 55.596 186.168 0 120 0zM48 132v-8.076C48 82.056 80.304 48 120 48s72 34.056 72 75.924V132H48z"
      ></path>
    </svg>