<svg
      xmlns="http://www.w3.org/2000/svg"
      width="512"
      height="512"
      fill="none"
      viewBox="0 0 512 512"
    >
      <path
        fill="#E44D26"
        fillRule="evenodd"
        d="M71.085 460.819L30 0h451.456l-41.129 460.747L255.451 512 71.085 460.819z"
        clipRule="evenodd"
      ></path>
      <path
        fill="#F16529"
        fillRule="evenodd"
        d="M255.728 472.824l149.388-41.416 35.147-393.73H255.728v435.146z"
        clipRule="evenodd"
      ></path>
      <path
        fill="#EBEBEB"
        d="M180.94 208.59h74.788v56.517H129.252l-15.243-170.91h141.719v56.518h-79.953l5.165 57.875zM255.48 355.438l.248-.066v58.802l-.26.072-115.772-32.139-7.918-88.741h56.734l4.024 45.076 62.944 16.996z"
      ></path>
      <path
        fill="#fff"
        d="M255.532 94.197H397.11l-5.061 56.518H255.532V94.197zM255.532 265.107V208.59h131.375l-1.379 15.176-14.132 158.341-115.864 32.112v-58.8l63.035-17.013 6.561-73.299h-69.596z"
      ></path>
    </svg>