  <svg
      xmlns="http://www.w3.org/2000/svg"
      width="240"
      height="98"
      fill="none"
      viewBox="0 0 240 98"
    >
      <g filter="url(#filter0_d_6_25)">
        <mask
          id="path-1-outside-1_6_25"
          width="232"
          height="90"
          x="4"
          y="0"
          fill="#000"
          maskUnits="userSpaceOnUse"
        >
          <path fill="#fff" d="M4 0H236V90H4z"></path>
          <path
            fillRule="evenodd"
            d="M5 6.845h20.711c10.41 0 19.52 2.793 26.543 9.2 7.79 7.062 11.27 17.147 11.27 28.98 0 4.036-.396 7.871-1.222 11.453L81.686 6.801h7.09l.262-.706.262.706h7.187l19.71 50.514V6.8h6.221L122.254 4l1.803 2.801h8.547l18.609 28.411V6.802h33.972l11.881 20.583 11.636-20.584H234l-25.811 44.181v32.092h-22.367V51.073l-12.649-21.62v53.621h-5.928l.207 2.926-1.917-2.926h-8.718l-18.661-28.34v28.34h-35.541l-5.741-15.401H81.108l-5.7 15.401H51.924l6.358-16.296a31.295 31.295 0 01-5.737 7.14l-.015.014c-6.94 6.39-16.026 9.142-26.413 9.142H5V6.845zm102.307 68.719h8.469l-23.9-61.253h-5.579l-23.9 61.253h8.306l5.7-15.401h25.163l5.741 15.401zM79.05 53.122l9.975-26.842 9.935 26.842H79.05zm52.157 22.442V38.029l-.447-7.657 4.926 7.657 24.715 37.535h5.823V14.311h-8.062v38.855l.448 6.337-29.601-45.192h-5.863v61.253h8.061zm61.564-26.666v26.666h8.469V48.812l20.154-34.5H212.6l-15.473 27.37-15.798-27.37h-8.794l20.236 34.586zM47.779 21.792a25.979 25.979 0 00-6.306-4.246c-4.427-2.127-9.681-3.19-15.762-3.19H11.95v61.208h14.17c6.319 0 11.72-1.135 16.203-3.405a25.129 25.129 0 005.702-3.944c5.7-5.28 8.55-13.01 8.55-23.19 0-10.179-2.931-17.923-8.795-23.233zm-8.55 43.637c3.871-2.282 6.477-5.827 7.818-10.635.787-2.904 1.18-6.145 1.18-9.724 0-10.244-3.248-17.157-9.743-20.74-3.083-1.7-6.897-2.65-11.443-2.85a41.361 41.361 0 00-1.86-.04h-5.089v47.083h5.538a43.982 43.982 0 001.411-.022c4.927-.162 8.99-1.186 12.188-3.072zm-12.188-4.442c4.322-.169 7.254-1.112 9.193-2.355 1.962-1.258 3.34-3.088 4.151-5.977.567-2.101.893-4.608.893-7.585 0-6.616-1.594-10.224-3.595-12.275-1.869-1.916-5.096-3.509-10.642-3.798v31.99z"
            clipRule="evenodd"
          ></path>
        </mask>
        <path
          fill="#000"
          fillRule="evenodd"
          d="M5 6.845h20.711c10.41 0 19.52 2.793 26.543 9.2 7.79 7.062 11.27 17.147 11.27 28.98 0 4.036-.396 7.871-1.222 11.453L81.686 6.801h7.09l.262-.706.262.706h7.187l19.71 50.514V6.8h6.221L122.254 4l1.803 2.801h8.547l18.609 28.411V6.802h33.972l11.881 20.583 11.636-20.584H234l-25.811 44.181v32.092h-22.367V51.073l-12.649-21.62v53.621h-5.928l.207 2.926-1.917-2.926h-8.718l-18.661-28.34v28.34h-35.541l-5.741-15.401H81.108l-5.7 15.401H51.924l6.358-16.296a31.295 31.295 0 01-5.737 7.14l-.015.014c-6.94 6.39-16.026 9.142-26.413 9.142H5V6.845zm102.307 68.719h8.469l-23.9-61.253h-5.579l-23.9 61.253h8.306l5.7-15.401h25.163l5.741 15.401zM79.05 53.122l9.975-26.842 9.935 26.842H79.05zm52.157 22.442V38.029l-.447-7.657 4.926 7.657 24.715 37.535h5.823V14.311h-8.062v38.855l.448 6.337-29.601-45.192h-5.863v61.253h8.061zm61.564-26.666v26.666h8.469V48.812l20.154-34.5H212.6l-15.473 27.37-15.798-27.37h-8.794l20.236 34.586zM47.779 21.792a25.979 25.979 0 00-6.306-4.246c-4.427-2.127-9.681-3.19-15.762-3.19H11.95v61.208h14.17c6.319 0 11.72-1.135 16.203-3.405a25.129 25.129 0 005.702-3.944c5.7-5.28 8.55-13.01 8.55-23.19 0-10.179-2.931-17.923-8.795-23.233zm-8.55 43.637c3.871-2.282 6.477-5.827 7.818-10.635.787-2.904 1.18-6.145 1.18-9.724 0-10.244-3.248-17.157-9.743-20.74-3.083-1.7-6.897-2.65-11.443-2.85a41.361 41.361 0 00-1.86-.04h-5.089v47.083h5.538a43.982 43.982 0 001.411-.022c4.927-.162 8.99-1.186 12.188-3.072zm-12.188-4.442c4.322-.169 7.254-1.112 9.193-2.355 1.962-1.258 3.34-3.088 4.151-5.977.567-2.101.893-4.608.893-7.585 0-6.616-1.594-10.224-3.595-12.275-1.869-1.916-5.096-3.509-10.642-3.798v31.99z"
          clipRule="evenodd"
        ></path>
        <path
          fillRule="evenodd"
          stroke="#AEA1A1"
          strokeWidth="2"
          d="M5 6.845h20.711c10.41 0 19.52 2.793 26.543 9.2 7.79 7.062 11.27 17.147 11.27 28.98 0 4.036-.396 7.871-1.222 11.453L81.686 6.801h7.09l.262-.706.262.706h7.187l19.71 50.514V6.8h6.221L122.254 4l1.803 2.801h8.547l18.609 28.411V6.802h33.972l11.881 20.583 11.636-20.584H234l-25.811 44.181v32.092h-22.367V51.073l-12.649-21.62v53.621h-5.928l.207 2.926-1.917-2.926h-8.718l-18.661-28.34v28.34h-35.541l-5.741-15.401H81.108l-5.7 15.401H51.924l6.358-16.296a31.295 31.295 0 01-5.737 7.14l-.015.014c-6.94 6.39-16.026 9.142-26.413 9.142H5V6.845zm102.307 68.719h8.469l-23.9-61.253h-5.579l-23.9 61.253h8.306l5.7-15.401h25.163l5.741 15.401zM79.05 53.122l9.975-26.842 9.935 26.842H79.05zm52.157 22.442V38.029l-.447-7.657 4.926 7.657 24.715 37.535h5.823V14.311h-8.062v38.855l.448 6.337-29.601-45.192h-5.863v61.253h8.061zm61.564-26.666v26.666h8.469V48.812l20.154-34.5H212.6l-15.473 27.37-15.798-27.37h-8.794l20.236 34.586zM47.779 21.792a25.979 25.979 0 00-6.306-4.246c-4.427-2.127-9.681-3.19-15.762-3.19H11.95v61.208h14.17c6.319 0 11.72-1.135 16.203-3.405a25.129 25.129 0 005.702-3.944c5.7-5.28 8.55-13.01 8.55-23.19 0-10.179-2.931-17.923-8.795-23.233zm-8.55 43.637c3.871-2.282 6.477-5.827 7.818-10.635.787-2.904 1.18-6.145 1.18-9.724 0-10.244-3.248-17.157-9.743-20.74-3.083-1.7-6.897-2.65-11.443-2.85a41.361 41.361 0 00-1.86-.04h-5.089v47.083h5.538a43.982 43.982 0 001.411-.022c4.927-.162 8.99-1.186 12.188-3.072zm-12.188-4.442c4.322-.169 7.254-1.112 9.193-2.355 1.962-1.258 3.34-3.088 4.151-5.977.567-2.101.893-4.608.893-7.585 0-6.616-1.594-10.224-3.595-12.275-1.869-1.916-5.096-3.509-10.642-3.798v31.99z"
          clipRule="evenodd"
          mask="url(#path-1-outside-1_6_25)"
        ></path>
      </g>
      <defs>
        <filter
          id="filter0_d_6_25"
          width="239.742"
          height="97.507"
          x="0"
          y="0.255"
          colorInterpolationFilters="sRGB"
          filterUnits="userSpaceOnUse"
        >
          <feFlood floodOpacity="0" result="BackgroundImageFix"></feFlood>
          <feColorMatrix
            in="SourceAlpha"
            result="hardAlpha"
            values="0 0 0 0 0 0 0 0 0 0 0 0 0 0 0 0 0 0 127 0"
          ></feColorMatrix>
          <feOffset dy="4"></feOffset>
          <feGaussianBlur stdDeviation="2"></feGaussianBlur>
          <feComposite in2="hardAlpha" operator="out"></feComposite>
          <feColorMatrix values="0 0 0 0 0 0 0 0 0 0 0 0 0 0 0 0 0 0 0.25 0"></feColorMatrix>
          <feBlend
            in2="BackgroundImageFix"
            result="effect1_dropShadow_6_25"
          ></feBlend>
          <feBlend
            in="SourceGraphic"
            in2="effect1_dropShadow_6_25"
            result="shape"
          ></feBlend>
        </filter>
      </defs>
    </svg>