 <svg
      xmlns="http://www.w3.org/2000/svg"
      width="512"
      height="512"
      fill="none"
      viewBox="0 0 512 512"
    >
      <g clipPath="url(#clip0_406_669)">
        <g fillRule="evenodd" clipPath="url(#clip1_406_669)" clipRule="evenodd">
          <path
            fill="#000"
            d="M496.969 305.405c-2.906-8.804-10.522-14.937-20.371-16.409-4.644-.693-9.962-.398-16.255.9-10.969 2.263-19.108 3.124-25.047 3.292 22.417-37.85 40.647-81.014 51.141-121.645 16.969-65.698 7.901-95.627-2.695-109.166-28.043-35.832-68.957-55.083-118.319-55.673-26.329-.321-49.447 4.878-61.504 8.616-11.228-1.98-23.301-3.086-35.968-3.291-23.742-.379-44.722 4.797-62.648 15.434-9.926-3.355-25.852-8.085-44.246-11.105-43.263-7.103-78.13-1.568-103.632 16.449-30.883 21.814-45.2 59.715-42.552 112.651.84 16.808 10.243 67.943 25.046 116.44 8.507 27.874 17.58 51.022 26.964 68.806 13.308 25.218 27.548 40.069 43.534 45.401 8.962 2.986 25.242 5.076 42.366-9.183 2.17 2.627 5.065 5.239 8.909 7.665 4.879 3.078 10.848 5.593 16.807 7.083 21.48 5.371 41.599 4.027 58.764-3.499.105 3.052.187 5.969.256 8.488.115 4.086.227 8.091.377 11.837 1.016 25.33 2.74 45.025 7.846 58.805.28.759.657 1.914 1.056 3.138 2.546 7.8 6.807 20.856 17.642 31.082 11.223 10.592 24.797 13.842 37.228 13.84 6.235 0 12.184-.817 17.401-1.936 18.6-3.985 39.723-10.058 55.003-31.815 14.446-20.568 21.469-51.547 22.74-100.361.164-1.38.317-2.698.463-3.954l.302-2.579 3.404.299.876.06c18.944.863 42.107-3.155 56.332-9.762 11.241-5.217 47.261-24.233 38.78-49.908"
          ></path>
          <path
            fill="#336791"
            d="M464.579 310.399c-56.325 11.618-60.197-7.452-60.197-7.452 59.47-88.245 84.331-200.258 62.876-227.673C408.73.492 307.413 35.859 305.722 36.777l-.544.098c-11.128-2.31-23.582-3.687-37.579-3.915-25.486-.418-44.818 6.681-59.488 17.806 0 0-180.739-74.457-172.333 93.644 1.788 35.763 51.257 270.594 110.262 199.664 21.566-25.937 42.404-47.867 42.404-47.867 10.349 6.875 22.739 10.382 35.728 9.123l1.009-.857c-.313 3.22-.17 6.37.405 10.099-15.201 16.983-10.734 19.965-41.121 26.22-30.747 6.336-12.684 17.618-.891 20.566 14.297 3.575 47.373 8.64 69.722-22.646l-.891 3.57c5.955 4.77 10.138 31.029 9.437 54.833-.701 23.804-1.169 40.147 3.524 52.912 4.692 12.765 9.37 41.487 49.315 32.927 33.379-7.153 50.675-25.689 53.082-56.608 1.707-21.982 5.571-18.732 5.816-38.385l3.099-9.304c3.574-29.797.568-39.41 21.132-34.939l4.997.439c15.136.688 34.945-2.435 46.571-7.839 25.036-11.618 39.883-31.016 15.199-25.919h.002"
          ></path>
          <path
            fill="#fff"
            d="M218.69 160.404c-5.074-.707-9.672-.053-11.998 1.707-1.309.991-1.713 2.139-1.822 2.929-.292 2.093 1.175 4.407 2.075 5.6 2.549 3.378 6.273 5.701 9.959 6.213.534.073 1.065.109 1.594.109 6.147 0 11.735-4.785 12.227-8.318.616-4.424-5.807-7.374-12.035-8.24M386.842 160.544h-.001c-.484-3.468-6.656-4.457-12.512-3.643-5.848.815-11.519 3.454-11.045 6.93.38 2.703 5.259 7.318 11.037 7.316.487 0 .98-.032 1.476-.101 3.856-.535 6.686-2.983 8.029-4.395 2.048-2.15 3.232-4.549 3.016-6.107"
          ></path>
          <path
            fill="#fff"
            d="M483.322 309.078c-2.148-6.494-9.06-8.585-20.545-6.212-34.101 7.038-46.312 2.162-50.323-.79 26.506-40.381 48.311-89.189 60.074-134.73 5.573-21.572 8.651-41.605 8.902-57.933.277-17.925-2.774-31.094-9.07-39.14-25.384-32.434-62.636-49.832-107.732-50.31-31.001-.348-57.194 7.586-62.272 9.817-10.693-2.66-22.351-4.292-35.041-4.5-23.274-.377-43.39 5.195-60.046 16.552-7.235-2.692-25.932-9.11-48.796-12.793-39.532-6.366-70.944-1.543-93.361 14.338-26.749 18.95-39.097 52.825-36.704 100.681.805 16.101 9.978 65.631 24.456 113.066 19.057 62.431 39.771 97.774 61.568 105.044 2.551.851 5.493 1.446 8.736 1.446 7.951 0 17.699-3.584 27.841-15.777 16.847-20.267 32.576-37.25 38.374-43.421 8.568 4.6 17.98 7.167 27.608 7.425.017.252.043.504.065.755a221.98 221.98 0 00-4.866 6.013c-6.67 8.467-8.059 10.23-29.531 14.651-6.107 1.26-22.331 4.604-22.567 15.975-.259 12.423 19.174 17.641 21.389 18.194 7.716 1.932 15.149 2.885 22.238 2.885 17.242-.001 32.413-5.667 44.539-16.631-.374 44.292 1.474 87.936 6.791 101.234 4.355 10.885 14.996 37.49 48.607 37.488 4.93 0 10.36-.573 16.332-1.853 35.077-7.522 50.308-23.024 56.202-57.203 3.153-18.267 8.565-61.887 11.109-85.284 5.371 1.675 12.287 2.442 19.762 2.441 15.591 0 33.581-3.313 44.864-8.55 12.673-5.885 35.545-20.33 31.397-32.878zm-83.534-158.107c-.116 6.908-1.067 13.178-2.075 19.724-1.084 7.04-2.206 14.318-2.488 23.154-.279 8.599.795 17.539 1.834 26.183 2.099 17.461 4.252 35.439-4.084 53.178a68.975 68.975 0 01-3.693-7.592c-1.036-2.512-3.286-6.546-6.4-12.13-12.12-21.734-40.501-72.631-25.972-93.4 4.327-6.183 15.309-12.538 42.878-9.117zm-33.416-117.02c40.405.892 72.365 16.008 94.995 44.924 17.356 22.18-1.755 123.102-57.083 210.168a305.789 305.789 0 00-1.679-2.114l-.699-.876c14.297-23.612 11.501-46.973 9.012-67.686-1.022-8.5-1.987-16.529-1.742-24.069.254-7.995 1.311-14.849 2.333-21.478 1.257-8.169 2.535-16.621 2.182-26.586.263-1.044.369-2.279.232-3.745-.901-9.556-11.809-38.151-34.045-64.036-12.161-14.156-29.899-30-54.117-40.685 10.417-2.159 24.662-4.172 40.611-3.817zM140.277 338.913c-11.174 13.435-18.891 10.86-21.429 10.015-16.535-5.516-35.72-40.462-52.634-95.879-14.637-47.951-23.19-96.168-23.867-109.689-2.137-42.761 8.228-72.563 30.81-88.577 36.75-26.062 97.171-10.463 121.45-2.551-.35.344-.713.666-1.059 1.016-39.839 40.235-38.894 108.978-38.796 113.18-.004 1.621.132 3.917.319 7.074.685 11.562 1.96 33.081-1.447 57.451-3.168 22.646 3.813 44.811 19.149 60.812a68.896 68.896 0 004.957 4.675c-6.827 7.311-21.663 23.476-37.453 42.473zm42.573-56.806c-12.36-12.896-17.974-30.835-15.403-49.221 3.599-25.744 2.27-48.165 1.557-60.21-.1-1.685-.188-3.162-.241-4.328 5.82-5.16 32.792-19.612 52.025-15.205 8.779 2.011 14.126 7.987 16.35 18.269 11.508 53.224 1.524 75.409-6.499 93.235-1.654 3.673-3.216 7.144-4.551 10.736l-1.033 2.776c-2.618 7.02-5.054 13.546-6.563 19.743-13.139-.04-25.922-5.652-35.642-15.795zm2.017 71.781c-3.836-.958-7.287-2.623-9.312-4.004 1.691-.796 4.701-1.878 9.92-2.953 25.26-5.201 29.16-8.87 37.679-19.687 1.954-2.479 4.168-5.291 7.234-8.715l.003-.004c4.568-5.113 6.656-4.246 10.444-2.675 3.071 1.27 6.06 5.118 7.273 9.353.573 2 1.218 5.797-.89 8.749-17.796 24.917-43.727 24.597-62.351 19.936zm132.195 123.016c-30.902 6.621-41.843-9.146-49.053-27.17-4.654-11.638-6.94-64.112-5.318-122.06a6.921 6.921 0 00-.301-2.216 29.318 29.318 0 00-.863-4.095c-2.414-8.432-8.294-15.485-15.348-18.408-2.803-1.162-7.948-3.292-14.13-1.711 1.319-5.432 3.605-11.565 6.083-18.207l1.04-2.795c1.172-3.15 2.64-6.413 4.194-9.866 8.396-18.653 19.894-44.2 7.415-101.915-4.675-21.616-20.284-32.172-43.948-29.721-14.187 1.468-27.165 7.192-33.638 10.474a107.303 107.303 0 00-3.854 2.05c1.806-21.781 8.633-62.485 34.168-88.238 16.076-16.214 37.487-24.22 63.575-23.79 51.402.842 84.364 27.221 102.966 49.203 16.029 18.942 24.709 38.023 28.174 48.313-26.051-2.648-43.769 2.495-52.751 15.335-19.54 27.931 10.69 82.145 25.219 108.199 2.664 4.775 4.964 8.902 5.687 10.655 4.731 11.466 10.856 19.121 15.328 24.71 1.371 1.712 2.701 3.372 3.712 4.822-7.89 2.276-22.062 7.531-20.771 33.801-1.042 13.183-8.45 74.898-12.212 96.703-4.967 28.806-15.568 39.537-45.374 45.927zm128.985-147.607c-8.068 3.745-21.57 6.554-34.396 7.157-14.167.664-21.378-1.587-23.075-2.971-.797-16.37 5.298-18.081 11.746-19.892 1.014-.286 2.002-.562 2.956-.896a24.31 24.31 0 001.954 1.431c11.387 7.516 31.697 8.327 60.368 2.409.105-.023.21-.043.315-.064-3.867 3.616-10.485 8.469-19.868 12.826z"
          ></path>
        </g>
      </g>
      <defs>
        <clipPath id="clip0_406_669">
          <path
            fill="#fff"
            d="M0 0H485V500H0z"
            transform="translate(14 6)"
          ></path>
        </clipPath>
        <clipPath id="clip1_406_669">
          <path
            fill="#fff"
            d="M0 0H484.848V500H0z"
            transform="translate(14 6)"
          ></path>
        </clipPath>
      </defs>
    </svg>