 <svg
      xmlns="http://www.w3.org/2000/svg"
      width="512"
      height="512"
      fill="none"
      viewBox="0 0 512 512"
    >
      <path
        fill="#00D8FF"
        d="M420.967 175.647a343.472 343.472 0 00-16.482-5.194 312.242 312.242 0 002.546-11.241c12.477-60.562 4.319-109.351-23.536-125.415-26.71-15.403-70.392.657-114.509 39.05a342.309 342.309 0 00-12.749 11.698 310.405 310.405 0 00-8.484-7.835c-46.236-41.053-92.58-58.353-120.408-42.243-26.684 15.447-34.587 61.314-23.356 118.709a341.916 341.916 0 003.786 16.961c-6.559 1.862-12.891 3.847-18.95 5.959C34.619 194.994 0 224.613 0 255.336c0 31.731 37.163 63.557 93.623 82.855a290.703 290.703 0 0013.844 4.33 334.318 334.318 0 00-4.021 18.276c-10.709 56.399-2.346 101.182 24.267 116.532 27.49 15.852 73.624-.442 118.547-39.711a290.405 290.405 0 0010.684-9.846 335.734 335.734 0 0013.842 12.628c43.513 37.445 86.49 52.565 113.079 37.172 27.461-15.897 36.386-64.005 24.799-122.536a289.587 289.587 0 00-3.071-13.685 306.41 306.41 0 009.522-2.974C473.811 318.929 512 287.49 512 255.336c0-30.834-35.735-60.652-91.033-79.689zm-12.731 141.968a287.16 287.16 0 01-8.599 2.691c-6.48-20.513-15.226-42.327-25.928-64.863 10.213-22 18.62-43.535 24.919-63.915a319.108 319.108 0 0115.219 4.801c47.38 16.31 76.281 40.425 76.281 59.007 0 19.793-31.212 45.487-81.892 62.279zm-21.028 41.669c5.123 25.882 5.855 49.281 2.461 67.574-3.049 16.437-9.182 27.396-16.764 31.785-16.136 9.34-50.641-2.8-87.855-34.823a313.402 313.402 0 01-12.873-11.739c14.426-15.779 28.845-34.122 42.917-54.493 24.751-2.196 48.136-5.787 69.342-10.689a266.713 266.713 0 012.772 12.385zm-212.656 97.745c-15.764 5.568-28.32 5.727-35.91 1.351-16.15-9.315-22.864-45.271-13.706-93.504a313.896 313.896 0 013.737-16.998c20.974 4.638 44.187 7.976 68.998 9.987 14.167 19.934 29.002 38.257 43.951 54.3a267.101 267.101 0 01-9.755 8.984c-19.864 17.364-39.771 29.684-57.315 35.88zm-73.855-139.535c-24.965-8.533-45.583-19.623-59.715-31.725-12.7-10.875-19.11-21.672-19.11-30.433 0-18.644 27.795-42.424 74.153-58.586a315.1 315.1 0 0117.623-5.546c6.407 20.841 14.812 42.63 24.954 64.664-10.273 22.361-18.797 44.498-25.267 65.583a269.413 269.413 0 01-12.638-3.957zm24.757-168.518c-9.622-49.175-3.232-86.27 12.849-95.58 17.129-9.916 55.006 4.223 94.927 39.67a290.097 290.097 0 017.683 7.09c-14.876 15.974-29.576 34.159-43.617 53.975-24.08 2.232-47.13 5.817-68.322 10.618a319.816 319.816 0 01-3.52-15.773zm220.854 54.534a693.582 693.582 0 00-15.57-25.605c16.336 2.065 31.988 4.806 46.686 8.161-4.413 14.142-9.913 28.929-16.387 44.087a762.075 762.075 0 00-14.729-26.643zm-90.064-87.722c10.089 10.93 20.192 23.133 30.13 36.373a644.08 644.08 0 00-60.514-.014c9.947-13.117 20.138-25.304 30.384-36.359zm-90.64 87.873a646.226 646.226 0 00-14.453 26.476c-6.37-15.106-11.819-29.96-16.27-44.303 14.608-3.269 30.186-5.942 46.418-7.968a642.53 642.53 0 00-15.695 25.794v.001zm16.163 130.705c-16.771-1.871-32.583-4.407-47.187-7.585 4.522-14.599 10.091-29.771 16.595-45.202a642.623 642.623 0 0014.515 26.492h.001a646.427 646.427 0 0016.076 26.295zm75.082 62.06c-10.366-11.185-20.706-23.557-30.805-36.866 9.803.385 19.798.582 29.956.582 10.436 0 20.752-.236 30.907-.688-9.97 13.549-20.037 25.94-30.058 36.972zm104.397-115.633c6.843 15.598 12.612 30.69 17.192 45.04-14.845 3.386-30.873 6.114-47.76 8.141a763.752 763.752 0 0015.717-26.053 694.844 694.844 0 0014.851-27.128zm-33.797 16.201c-8.003 13.877-16.22 27.125-24.562 39.629-15.193 1.087-30.889 1.646-46.887 1.646-15.933 0-31.432-.495-46.356-1.464a620.347 620.347 0 01-25.026-39.692h.002a615.052 615.052 0 01-21.846-41.252 620.581 620.581 0 0121.78-41.275l-.002.002a614.497 614.497 0 0124.826-39.522 619.783 619.783 0 0146.621-1.752H256c15.851 0 31.485.605 46.708 1.766a659.26 659.26 0 0124.669 39.39c8.028 13.867 15.403 27.606 22.072 41.08-6.649 13.706-14.007 27.583-22 41.444zm45.12-244.248c17.146 9.887 23.813 49.762 13.041 102.051a288.929 288.929 0 01-2.301 10.179c-21.242-4.901-44.308-8.548-68.458-10.814-14.069-20.034-28.648-38.248-43.281-54.016a321.861 321.861 0 0111.775-10.8c37.799-32.895 73.128-45.882 89.224-36.6zM256 209.616c25.25 0 45.72 20.469 45.72 45.72 0 25.25-20.47 45.72-45.72 45.72s-45.72-20.47-45.72-45.72c0-25.251 20.47-45.72 45.72-45.72z"
      ></path>
    </svg>